# xmcd CD database file
#
# Track frame offsets:
#	150
#	21028
#	39892
#	60011
#	85853
#	104434
#	133244
#	154592
#	168863
#	191363
#	212188
#	227884
#	247927
#	268303
#
# Disc length: 3921 seconds
#
# Revision: 0
# Processed by: cddbd v1.4PL0 Copyright (c) Steve Scherf et al.
# Submitted via: CDex 1.50
#
DISCID=af0f4f0e
DTITLE=Issac Delgado Y Su Grupo - La Formula
DYEAR=2000
DGENRE=Salsa
TTITLE0=Nadie Me Quiere Bailar
TTITLE1=O Estás Loca 
TTITLE2=Amor Sin Ética
TTITLE3=El Solar De La California
TTITLE4=Quando
TTITLE5=La Fórmula
TTITLE6=Caricias
TTITLE7=El Pregón Del Chocolate
TTITLE8=A Ti Todo
TTITLE9=Malecón
TTITLE10=España Tiene
TTITLE11=Te Perdono
TTITLE12=Afortunada Tu (todo Va A Estallar)
TTITLE13=Gracias A La Vida
EXTD=YEAR: 2000
EXTT0=
EXTT1=
EXTT2=
EXTT3=
EXTT4=
EXTT5=
EXTT6=
EXTT7=
EXTT8=
EXTT9=
EXTT10=
EXTT11=
EXTT12=
EXTT13=
PLAYORDER=
